<?xml version="1.0" encoding="utf-8"?>
<!-- Generator: Adobe Illustrator 24.0.1, SVG Export Plug-In . SVG Version: 6.00 Build 0)  -->
<svg version="1.1" id="Layer_1" xmlns="http://www.w3.org/2000/svg" xmlns:xlink="http://www.w3.org/1999/xlink" x="0px" y="0px"
	 viewBox="0 0 309.81 225.97" style="enable-background:new 0 0 309.81 225.97;" xml:space="preserve">
<style type="text/css">
	.st0{fill:#010101;}
</style>
<sodipodi:namedview  bordercolor="#666666" borderopacity="1" fit-margin-bottom="10" fit-margin-left="10" fit-margin-right="10" fit-margin-top="10" gridtolerance="10" guidetolerance="10" id="namedview14" objecttolerance="10" pagecolor="#ffffff" showgrid="false">
	</sodipodi:namedview>
<g id="path2_1_">
	<path class="st0" d="M84.4,137.52l24.04,13.09c1.27,0.69,2.7,1.05,4.14,1.05c3.19,0,6.11-1.74,7.64-4.54
		c2.28-4.2,0.71-9.49-3.49-11.77l-19.54-10.61V82.98c0-4.79-3.89-8.68-8.68-8.68s-8.68,3.89-8.68,8.68v46.93
		C79.83,133.14,81.63,136.09,84.4,137.52z"/>
</g>
<g>
	<g>
		<path d="M0,112.99C0,42.87,40.87,0,97.7,0c26.25,0,46.86,12.63,59.82,26.58L141.56,44.2c-11.3-11.96-25.59-19.61-43.87-19.61
			c-41.54,0-68.79,33.56-68.79,87.73c0,54.83,27.25,89.06,68.79,89.06c19.94,0,35.23-8.64,48.85-23.93l15.95,16.95
			c-16.95,19.94-38.55,31.57-67.46,31.57C41.21,225.97,0,184.1,0,112.99z"/>
	</g>
</g>
<g>
	<path d="M168.16,92.02h12.66c9.27,0,15.53,3.13,15.53,12.34c0,8.89-6.33,12.98-15.53,12.98h-7.29v16.62h-5.37V92.02z
		 M180.18,112.99c7.29,0,10.8-2.68,10.8-8.63c0-6.01-3.58-7.99-10.8-7.99h-6.65v16.62H180.18z"/>
	<path d="M208.56,92.02h5.31v37.4h20.71v4.54h-26.02V92.02z"/>
	<path d="M254.46,92.02h6.14l14.13,41.94h-5.75l-7.22-23.4c-1.47-4.67-2.88-9.27-4.15-14.13h-0.26c-1.34,4.86-2.68,9.46-4.15,14.13
		l-7.35,23.4h-5.5L254.46,92.02z M247.81,116.89h19.24v4.35h-19.24V116.89z"/>
	<path d="M281.94,92.02h5.88l13.42,26.34l4.03,8.69h0.13c-0.19-4.15-0.7-8.89-0.7-13.3V92.02h5.11v41.94h-5.88l-13.42-26.34
		l-4.03-8.69h-0.13c0.19,4.28,0.7,8.76,0.7,13.11v21.93h-5.11V92.02z"/>
</g>
</svg>
