<?xml version="1.0" encoding="utf-8"?>
<!-- Generator: Adobe Illustrator 24.0.1, SVG Export Plug-In . SVG Version: 6.00 Build 0)  -->
<svg version="1.1" id="Layer_1" xmlns="http://www.w3.org/2000/svg" xmlns:xlink="http://www.w3.org/1999/xlink" x="0px" y="0px"
	 viewBox="0 0 400 250" style="enable-background:new 0 0 400 250;" xml:space="preserve">
<style type="text/css">
	.st0{fill:#FFFFFF;}
</style>
<g>
	<g id="path2_1_">
		<g>
			<path class="st0" d="M109.5,149.53l24.04,13.09c1.27,0.69,2.7,1.05,4.14,1.05c3.19,0,6.11-1.74,7.64-4.54
				c2.28-4.2,0.71-9.49-3.49-11.77l-19.54-10.61V94.99c0-4.79-3.89-8.68-8.68-8.68s-8.68,3.89-8.68,8.68v46.93
				C104.93,145.15,106.72,148.1,109.5,149.53z"/>
		</g>
	</g>
	<g>
		<g>
			<g>
				<path class="st0" d="M25.1,125c0-70.12,40.87-112.99,97.7-112.99c26.25,0,46.86,12.63,59.82,26.58l-15.96,17.62
					c-11.3-11.96-25.59-19.61-43.87-19.61C81.25,36.6,54,70.16,54,124.33c0,54.83,27.25,89.06,68.79,89.06
					c19.94,0,35.23-8.64,48.85-23.93l15.95,16.95c-16.95,19.94-38.55,31.57-67.46,31.57C66.31,237.98,25.1,196.11,25.1,125z"/>
			</g>
		</g>
	</g>
	<g>
		<path class="st0" d="M207.82,93.6h21.84c5.65,0,10.03,1.52,13.14,4.55s4.66,7.33,4.66,12.9c0,2.9-0.51,5.81-1.54,8.72
			c-1.02,2.92-3.18,5.45-6.47,7.6c-3.29,2.15-7.42,3.23-12.39,3.23h-4.83v24.3h-14.41V93.6z M222.23,105.42v13.14h3.15
			c2.33,0,4.19-0.61,5.58-1.82s2.08-2.92,2.08-5.12c0-2.08-0.53-3.63-1.6-4.66c-1.07-1.03-2.66-1.54-4.79-1.54
			C226.65,105.42,222.23,105.42,222.23,105.42z"/>
		<path class="st0" d="M253.34,93.6h14.33v48.78h19.69v12.52h-34.01V93.6H253.34z"/>
		<path class="st0" d="M302.71,93.6h14.21l16.14,61.3H317.5l-2.18-12.17h-11.75l-2.24,12.17H286.7L302.71,93.6z M309.53,110.34
			l-3.93,21.4h7.77L309.53,110.34z"/>
		<path class="st0" d="M337.41,93.6h14.55l6.99,19.42c2.08,5.77,3.68,10.77,4.79,14.99h0.75l-0.35-10.37V93.6h13.71v61.3h-14.5
			l-6.99-19.42c-2.08-5.77-3.68-10.78-4.79-15.03h-0.79l0.35,10.37v24.08h-13.71L337.41,93.6L337.41,93.6z"/>
	</g>
</g>
</svg>
