<?xml version="1.0" standalone="no"?>
<!DOCTYPE svg PUBLIC "-//W3C//DTD SVG 20010904//EN"
 "http://www.w3.org/TR/2001/REC-SVG-20010904/DTD/svg10.dtd">
<svg version="1.0" xmlns="http://www.w3.org/2000/svg"
 width="800.000000pt" height="800.000000pt" viewBox="0 0 800.000000 800.000000"
 preserveAspectRatio="xMidYMid meet">
<metadata>
Created by potrace 1.11, written by Peter Selinger 2001-2013
</metadata>
<g transform="translate(0.000000,800.000000) scale(0.100000,-0.100000)"
fill="#000000" stroke="none">
<path d="M2278 6255 c-2 -2 -30 -6 -63 -9 -33 -3 -70 -8 -81 -10 -12 -2 -39
-7 -60 -10 -158 -26 -481 -139 -545 -193 -8 -7 -19 -13 -24 -13 -11 0 -109
-63 -113 -72 -2 -5 -9 -8 -15 -8 -26 -1 -222 -171 -321 -280 -262 -286 -461
-741 -522 -1195 -3 -27 -8 -59 -10 -70 -10 -51 -18 -227 -18 -405 0 -206 6
-297 29 -460 4 -30 9 -64 11 -75 14 -108 95 -417 116 -440 4 -5 8 -17 8 -27 0
-10 4 -26 9 -36 5 -9 13 -28 19 -42 30 -71 116 -245 124 -248 4 -2 8 -8 8 -14
0 -16 107 -174 171 -253 113 -140 239 -255 395 -362 60 -42 268 -149 334 -173
19 -6 44 -16 55 -20 45 -17 164 -48 255 -67 99 -20 214 -28 380 -27 127 0 265
8 265 14 0 1 16 3 35 6 71 9 248 58 342 96 208 83 400 212 566 380 138 139
130 124 94 161 -16 18 -63 67 -103 111 -41 43 -99 104 -130 137 l-56 59 -87
-88 c-48 -48 -107 -101 -132 -117 -24 -17 -44 -33 -44 -37 0 -9 -176 -113
-235 -139 -73 -31 -241 -79 -291 -81 -24 -2 -44 -5 -44 -8 0 -15 -320 -2 -400
16 -14 3 -36 8 -50 10 -74 13 -277 93 -345 136 -177 113 -289 222 -423 413
-28 40 -101 184 -144 285 -18 40 -67 187 -72 216 -2 10 -9 37 -14 59 -6 22
-13 53 -16 69 -3 16 -10 52 -15 80 -25 126 -35 260 -35 486 -1 218 8 355 30
453 3 16 7 38 9 50 6 46 17 102 21 108 2 3 6 20 9 38 8 48 73 238 106 309 16
35 29 67 29 72 0 5 3 10 8 12 4 2 22 32 41 68 19 35 38 69 43 75 4 5 29 39 55
75 54 73 168 191 228 235 22 17 42 32 45 35 50 53 320 173 435 194 17 3 42 8
56 11 168 32 478 23 551 -16 10 -5 18 -7 18 -5 0 6 135 -41 165 -57 11 -6 23
-10 27 -9 3 1 12 -5 18 -13 7 -8 17 -15 21 -15 9 0 138 -78 149 -90 3 -3 34
-30 70 -60 36 -30 75 -65 87 -77 22 -23 43 -30 43 -15 0 5 15 24 33 43 27 29
170 187 202 224 6 6 23 26 40 44 l30 32 -75 71 c-41 38 -106 93 -145 122 -82
61 -215 148 -215 140 0 -3 -14 4 -30 16 -17 12 -36 23 -43 24 -7 2 -39 15 -72
30 -33 15 -112 42 -175 61 -107 31 -139 38 -215 51 -35 5 -402 14 -407 9z"/>
<path d="M2239 4770 c-49 -9 -96 -44 -120 -93 -21 -39 -21 -53 -21 -536 1
-273 3 -506 6 -518 13 -58 46 -93 134 -140 31 -17 86 -47 122 -67 36 -20 90
-48 120 -63 30 -16 57 -30 60 -33 7 -7 41 -26 111 -61 99 -50 172 -39 236 36
41 47 50 107 26 166 -25 63 -38 74 -208 164 -60 32 -121 65 -135 73 -14 7 -47
25 -75 40 l-49 27 -1 440 0 440 -24 41 c-36 64 -107 97 -182 84z"/>
<path d="M4158 4618 c-2 -7 -4 -283 -3 -613 l1 -600 144 -1 145 -2 0 242 0
241 50 1 c113 2 189 15 243 41 31 15 63 32 70 37 40 33 85 84 97 111 41 90 55
243 29 317 -7 21 -13 41 -13 43 -1 3 -8 20 -17 38 -25 49 -78 95 -142 125 -57
26 -58 27 -328 30 -214 2 -273 0 -276 -10z m454 -242 c24 -11 48 -67 48 -113
0 -81 -63 -133 -162 -133 l-53 0 1 123 c1 67 2 127 3 132 1 11 132 3 163 -9z"/>
<path d="M5068 4617 c-2 -7 -3 -282 -2 -612 l1 -600 481 -1 c436 -1 482 0 483
15 0 9 2 23 4 31 1 8 10 53 19 98 9 46 18 87 20 90 2 4 55 7 117 7 l113 0 8
-35 c4 -19 10 -51 13 -70 4 -32 9 -56 20 -100 2 -8 4 -20 4 -26 1 -13 298 -17
306 -4 3 4 -2 29 -10 56 -7 27 -32 119 -54 204 -22 85 -47 180 -55 210 -8 30
-24 91 -36 135 -11 44 -34 130 -50 190 -42 158 -96 366 -104 396 l-6 27 -139
1 c-82 0 -142 -3 -146 -9 -3 -5 -13 -36 -21 -67 -35 -133 -116 -449 -119 -463
-2 -8 -4 -15 -5 -15 -1 0 -3 -7 -5 -15 -2 -8 -15 -60 -30 -115 -14 -55 -28
-107 -30 -115 -13 -60 -85 -324 -90 -328 -6 -6 -8 29 -5 101 1 43 -1 47 -22
48 -13 0 -95 0 -183 0 -88 0 -167 2 -176 5 -14 4 -15 55 -14 477 0 259 -1 478
-3 484 -6 18 -279 17 -284 0z m1131 -349 c-1 -7 1 -29 4 -48 4 -19 9 -46 11
-60 3 -14 5 -25 6 -25 1 0 3 -13 5 -30 2 -16 6 -43 9 -60 3 -16 12 -63 19
-102 10 -52 11 -73 3 -74 -6 -1 -41 -2 -77 -3 -66 -1 -67 -1 -63 24 3 14 14
72 24 130 26 136 26 138 34 185 9 50 16 75 22 75 3 0 4 -6 3 -12z m-439 -788
c0 -5 -2 -10 -4 -10 -3 0 -8 5 -11 10 -3 6 -1 10 4 10 6 0 11 -4 11 -10z"/>
<path d="M6749 4608 c0 -27 0 -1178 0 -1194 1 -7 45 -11 138 -10 l137 1 -1
250 c-1 138 -2 286 -3 330 -3 119 -2 126 15 87 8 -18 16 -43 18 -55 2 -12 7
-29 10 -37 3 -8 19 -55 35 -105 17 -49 44 -128 62 -175 18 -47 33 -89 34 -95
3 -9 9 -27 24 -65 3 -8 15 -42 26 -75 l21 -60 146 -1 145 -1 0 611 -1 611
-136 2 -136 3 1 -345 c1 -190 -1 -345 -5 -345 -4 0 -11 15 -14 33 -8 36 -91
291 -105 322 -5 11 -23 61 -40 110 -17 50 -40 113 -50 140 -10 28 -21 58 -24
68 -5 15 -21 17 -151 17 -144 0 -145 0 -146 -22z"/>
</g>
</svg>
